<svg width="960" height="760" viewBox="0 0 960 760" fill="none" xmlns="http://www.w3.org/2000/svg">
  <defs>
    <linearGradient id="edu-bg" x1="118" y1="80" x2="852" y2="678" gradientUnits="userSpaceOnUse">
      <stop stop-color="#F8FBF9"/>
      <stop offset="1" stop-color="#E2EFE7"/>
    </linearGradient>
    <linearGradient id="edu-dark" x1="212" y1="154" x2="740" y2="608" gradientUnits="userSpaceOnUse">
      <stop stop-color="#163328"/>
      <stop offset="1" stop-color="#0B1D17"/>
    </linearGradient>
    <linearGradient id="edu-accent" x1="250" y1="220" x2="694" y2="522" gradientUnits="userSpaceOnUse">
      <stop stop-color="#93DBB6"/>
      <stop offset="1" stop-color="#328C5B"/>
    </linearGradient>
  </defs>
  <rect width="960" height="760" rx="44" fill="url(#edu-bg)"/>
  <circle cx="780" cy="172" r="94" fill="#D8ECE0"/>
  <circle cx="166" cy="598" r="86" fill="#DCEFE3"/>
  <rect x="190" y="152" width="580" height="458" rx="40" fill="url(#edu-dark)"/>
  <rect x="232" y="194" width="496" height="84" rx="24" fill="#F5FAF6"/>
  <rect x="262" y="224" width="204" height="14" rx="7" fill="#17372A"/>
  <rect x="262" y="250" width="148" height="12" rx="6" fill="#A6C8B5"/>
  <rect x="232" y="306" width="216" height="248" rx="26" fill="#EEF7F1"/>
  <rect x="474" y="306" width="254" height="248" rx="26" fill="#F8FBF9"/>
  <rect x="264" y="340" width="110" height="14" rx="7" fill="#48745F"/>
  <rect x="264" y="372" width="148" height="12" rx="6" fill="#B2D2C0"/>
  <rect x="264" y="404" width="136" height="12" rx="6" fill="#B2D2C0"/>
  <rect x="264" y="458" width="112" height="20" rx="10" fill="#16372A"/>
  <rect x="506" y="338" width="176" height="16" rx="8" fill="#16372A"/>
  <rect x="506" y="372" width="186" height="12" rx="6" fill="#A8CBB8"/>
  <rect x="506" y="402" width="162" height="12" rx="6" fill="#A8CBB8"/>
  <path d="M520 474C558 430 603 408 654 408" stroke="url(#edu-accent)" stroke-width="12" stroke-linecap="round"/>
  <path d="M520 512C556 536 596 548 640 548C659 548 677 546 694 541" stroke="#83D2A4" stroke-width="10" stroke-linecap="round"/>
  <circle cx="566" cy="438" r="11" fill="#92DAB5"/>
  <circle cx="640" cy="410" r="13" fill="#4EA476"/>
  <circle cx="694" cy="540" r="10" fill="#DDF4E6"/>
  <text x="194" y="114" fill="#183328" font-family="Georgia, 'Times New Roman', serif" font-size="34" font-weight="700">Education, guides, and standards</text>
  <text x="194" y="668" fill="#4A6A58" font-family="Arial, Helvetica, sans-serif" font-size="24">COAs • comparison guides • methodology • policy pages</text>
</svg>
