<svg width="960" height="760" viewBox="0 0 960 760" fill="none" xmlns="http://www.w3.org/2000/svg">
  <defs>
    <linearGradient id="coa-bg" x1="110" y1="90" x2="844" y2="674" gradientUnits="userSpaceOnUse">
      <stop stop-color="#F7FBF8"/>
      <stop offset="1" stop-color="#DFEEE6"/>
    </linearGradient>
    <linearGradient id="coa-dark" x1="218" y1="156" x2="734" y2="604" gradientUnits="userSpaceOnUse">
      <stop stop-color="#173429"/>
      <stop offset="1" stop-color="#0C1F18"/>
    </linearGradient>
    <linearGradient id="coa-accent" x1="286" y1="232" x2="650" y2="544" gradientUnits="userSpaceOnUse">
      <stop stop-color="#A8E3C2"/>
      <stop offset="1" stop-color="#439B6C"/>
    </linearGradient>
  </defs>
  <rect width="960" height="760" rx="44" fill="url(#coa-bg)"/>
  <rect x="204" y="154" width="552" height="452" rx="40" fill="url(#coa-dark)"/>
  <rect x="258" y="206" width="444" height="346" rx="30" fill="#F8FBF9"/>
  <rect x="296" y="248" width="116" height="14" rx="7" fill="#143529"/>
  <rect x="296" y="278" width="166" height="12" rx="6" fill="#B0D0BE"/>
  <rect x="296" y="322" width="368" height="16" rx="8" fill="#D8E9DF"/>
  <rect x="296" y="360" width="330" height="16" rx="8" fill="#D8E9DF"/>
  <rect x="296" y="398" width="352" height="16" rx="8" fill="#D8E9DF"/>
  <path d="M296 470H524" stroke="url(#coa-accent)" stroke-width="18" stroke-linecap="round"/>
  <path d="M550 470H628" stroke="#143529" stroke-width="18" stroke-linecap="round"/>
  <circle cx="696" cy="202" r="34" fill="#E3F4EA"/>
  <path d="M686 202L694 210L710 194" stroke="#329261" stroke-width="8" stroke-linecap="round" stroke-linejoin="round"/>
  <text x="206" y="114" fill="#173328" font-family="Georgia, 'Times New Roman', serif" font-size="34" font-weight="700">COA and documentation basics</text>
  <text x="206" y="666" fill="#486958" font-family="Arial, Helvetica, sans-serif" font-size="24">Batch detail • readability • recent timing • supporting context</text>
</svg>
