<svg width="960" height="760" viewBox="0 0 960 760" fill="none" xmlns="http://www.w3.org/2000/svg">
  <defs>
    <linearGradient id="gc-bg" x1="120" y1="82" x2="842" y2="678" gradientUnits="userSpaceOnUse">
      <stop stop-color="#F7FBF8"/>
      <stop offset="1" stop-color="#E1EEE7"/>
    </linearGradient>
    <linearGradient id="gc-dark" x1="188" y1="150" x2="770" y2="612" gradientUnits="userSpaceOnUse">
      <stop stop-color="#143127"/>
      <stop offset="1" stop-color="#0A1C16"/>
    </linearGradient>
    <linearGradient id="gc-accent" x1="250" y1="218" x2="712" y2="548" gradientUnits="userSpaceOnUse">
      <stop stop-color="#9AE1BB"/>
      <stop offset="1" stop-color="#379667"/>
    </linearGradient>
  </defs>
  <rect width="960" height="760" rx="44" fill="url(#gc-bg)"/>
  <rect x="170" y="150" width="620" height="460" rx="42" fill="url(#gc-dark)"/>
  <rect x="218" y="198" width="244" height="150" rx="28" fill="#F8FBF9"/>
  <rect x="496" y="198" width="244" height="150" rx="28" fill="#EEF7F1"/>
  <rect x="218" y="384" width="522" height="178" rx="30" fill="#F7FBF8"/>
  <rect x="250" y="230" width="110" height="12" rx="6" fill="#B5D4C2"/>
  <rect x="250" y="256" width="78" height="12" rx="6" fill="#B5D4C2"/>
  <rect x="250" y="292" width="132" height="18" rx="9" fill="#17372A"/>
  <rect x="528" y="230" width="122" height="12" rx="6" fill="#9BCFB0"/>
  <rect x="528" y="256" width="84" height="12" rx="6" fill="#9BCFB0"/>
  <rect x="528" y="292" width="144" height="18" rx="9" fill="#4B9E72"/>
  <path d="M270 474H688" stroke="#D6E8DE" stroke-width="16" stroke-linecap="round"/>
  <path d="M270 514H612" stroke="#B9D6C5" stroke-width="16" stroke-linecap="round"/>
  <path d="M270 554H548" stroke="#95CBAE" stroke-width="16" stroke-linecap="round"/>
  <path d="M340 424C382 394 428 378 478 378C532 378 584 397 634 436" stroke="url(#gc-accent)" stroke-width="12" stroke-linecap="round"/>
  <circle cx="394" cy="394" r="12" fill="#8BD6AD"/>
  <circle cx="486" cy="378" r="14" fill="#53AF7B"/>
  <circle cx="604" cy="418" r="11" fill="#DDF5E7"/>
  <text x="176" y="112" fill="#173328" font-family="Georgia, 'Times New Roman', serif" font-size="34" font-weight="700">Comparison guide visuals</text>
  <text x="176" y="668" fill="#486958" font-family="Arial, Helvetica, sans-serif" font-size="24">Check clarity • compare documentation • weigh trust signals</text>
</svg>
