<svg xmlns="http://www.w3.org/2000/svg" viewBox="0 0 640 520">
  <defs>
    <linearGradient id="bg" x1="0" x2="1" y1="0" y2="1">
      <stop offset="0%" stop-color="#fff8ef"/>
      <stop offset="100%" stop-color="#f2eadc"/>
    </linearGradient>
    <linearGradient id="tube" x1="0" x2="0" y1="0" y2="1">
      <stop offset="0%" stop-color="#f1d79e"/>
      <stop offset="100%" stop-color="#ce9a2a"/>
    </linearGradient>
  </defs>
  <rect width="640" height="520" rx="34" fill="url(#bg)"/>
  <circle cx="527" cy="102" r="58" fill="#d7e5c2"/>
  <circle cx="112" cy="410" r="82" fill="#f4ddbd"/>
  <rect x="130" y="150" width="382" height="212" rx="26" fill="#fffdf8" stroke="#d9d2c5"/>
  <rect x="162" y="182" width="138" height="148" rx="16" fill="#27462d"/>
  <rect x="340" y="182" width="138" height="148" rx="16" fill="#fff8ef" stroke="#d9d2c5"/>
  <rect x="186" y="120" width="88" height="40" rx="14" fill="#27462d"/>
  <rect x="364" y="120" width="88" height="40" rx="14" fill="#b56d42"/>
  <path d="M205 194h56v92a28 28 0 0 1-56 0z" fill="url(#tube)"/>
  <path d="M384 206h48l-8 84c-2 18-38 18-40 0z" fill="#d7e5c2"/>
  <rect x="166" y="392" width="308" height="26" rx="13" fill="#27462d" opacity=".12"/>
  <path d="M188 392h264" stroke="#27462d" stroke-width="10" stroke-linecap="round" opacity=".18"/>
  <circle cx="414" cy="248" r="18" fill="#ce9a2a"/>
  <circle cx="414" cy="248" r="6" fill="#fff8ef"/>
  <path d="M376 291c18-18 56-18 74 0" fill="none" stroke="#27462d" stroke-width="6" stroke-linecap="round"/>
</svg>
