<svg width="960" height="760" viewBox="0 0 960 760" fill="none" xmlns="http://www.w3.org/2000/svg">
  <defs>
    <linearGradient id="bg" x1="112" y1="84" x2="846" y2="672" gradientUnits="userSpaceOnUse">
      <stop stop-color="#FFFFFF"/>
      <stop offset="1" stop-color="#F4F6F3"/>
    </linearGradient>
    <linearGradient id="panel" x1="196" y1="124" x2="728" y2="610" gradientUnits="userSpaceOnUse">
      <stop stop-color="#19382B"/>
      <stop offset="1" stop-color="#294C3B"/>
    </linearGradient>
    <linearGradient id="glass" x1="176" y1="166" x2="774" y2="612" gradientUnits="userSpaceOnUse">
      <stop stop-color="#FFFFFF" stop-opacity="0.18"/>
      <stop offset="1" stop-color="#FFFFFF" stop-opacity="0.04"/>
    </linearGradient>
    <linearGradient id="accent" x1="260" y1="260" x2="640" y2="520" gradientUnits="userSpaceOnUse">
      <stop stop-color="#6F8A7D"/>
      <stop offset="1" stop-color="#426B58"/>
    </linearGradient>
  </defs>
  <rect width="960" height="760" rx="44" fill="url(#bg)"/>
  <circle cx="780" cy="150" r="96" fill="#426B58" fill-opacity=".14"/>
  <circle cx="192" cy="648" r="84" fill="#19382B" fill-opacity=".10"/>
  <rect x="162" y="146" width="596" height="470" rx="74" fill="url(#panel)"/>
  <rect x="208" y="196" width="198" height="162" rx="24" fill="#FFFFFF"/>
  <rect x="228" y="228" width="110" height="12" rx="6" fill="#E6ECE8"/>
  <rect x="228" y="254" width="86" height="12" rx="6" fill="#E6ECE8"/>
  <rect x="228" y="292" width="148" height="18" rx="9" fill="#19382B"/>
  <rect x="228" y="326" width="132" height="12" rx="6" fill="#D5DED8"/>
  <rect x="442" y="196" width="274" height="258" rx="30" fill="#294C3B"/>
  <rect x="474" y="226" width="118" height="12" rx="6" fill="#D5DED8"/>
  <rect x="602" y="226" width="72" height="12" rx="6" fill="#426B58"/>
  <path d="M486 324C520 276 564 252 618 252C657 252 692 267 724 294" stroke="url(#accent)" stroke-width="12" stroke-linecap="round"/>
  <path d="M486 378C522 420 569 441 626 441C661 441 693 433 722 416" stroke="#E6ECE8" stroke-opacity="0.85" stroke-width="10" stroke-linecap="round"/>
  <circle cx="532" cy="318" r="12" fill="#D5DED8"/>
  <circle cx="612" cy="252" r="14" fill="#426B58"/>
  <circle cx="686" cy="284" r="10" fill="#F4F6F3"/>
  <circle cx="558" cy="404" r="11" fill="#F4F6F3"/>
  <circle cx="640" cy="439" r="13" fill="#93A89C"/>
  <rect x="208" y="394" width="198" height="162" rx="24" fill="#E6ECE8"/>
  <rect x="232" y="424" width="96" height="12" rx="6" fill="#C8D4CE"/>
  <rect x="232" y="448" width="142" height="12" rx="6" fill="#C8D4CE"/>
  <path d="M246 498H360" stroke="#19382B" stroke-width="14" stroke-linecap="round"/>
  <path d="M246 530H330" stroke="#426B58" stroke-width="14" stroke-linecap="round"/>
  <rect x="442" y="486" width="274" height="70" rx="22" fill="#FFFFFF"/>
  <rect x="470" y="512" width="164" height="12" rx="6" fill="#D5DED8"/>
  <rect x="646" y="512" width="44" height="12" rx="6" fill="#426B58"/>
  <text x="208" y="112" fill="#111827" font-family="Georgia, 'Times New Roman', serif" font-size="34" font-weight="700">Research-first supplier discovery</text>
  <text x="208" y="666" fill="#4B5563" font-family="Arial, Helvetica, sans-serif" font-size="24">Testing visibility • documentation • cleaner comparisons</text>
</svg>
