<svg width="960" height="760" viewBox="0 0 960 760" fill="none" xmlns="http://www.w3.org/2000/svg">
  <defs>
    <linearGradient id="bg" x1="112" y1="84" x2="846" y2="672" gradientUnits="userSpaceOnUse">
      <stop stop-color="#F6FBF7"/>
      <stop offset="1" stop-color="#E2F1E8"/>
    </linearGradient>
    <linearGradient id="panel" x1="196" y1="124" x2="728" y2="610" gradientUnits="userSpaceOnUse">
      <stop stop-color="#173429"/>
      <stop offset="1" stop-color="#0D201A"/>
    </linearGradient>
    <linearGradient id="glass" x1="176" y1="166" x2="774" y2="612" gradientUnits="userSpaceOnUse">
      <stop stop-color="#FFFFFF" stop-opacity="0.18"/>
      <stop offset="1" stop-color="#FFFFFF" stop-opacity="0.04"/>
    </linearGradient>
    <linearGradient id="accent" x1="260" y1="260" x2="640" y2="520" gradientUnits="userSpaceOnUse">
      <stop stop-color="#8BE1B7"/>
      <stop offset="1" stop-color="#39A86D"/>
    </linearGradient>
    <filter id="shadow" x="118" y="112" width="724" height="560" filterUnits="userSpaceOnUse" color-interpolation-filters="sRGB">
      <feFlood flood-opacity="0" result="BackgroundImageFix"/>
      <feColorMatrix in="SourceAlpha" type="matrix" values="0 0 0 0 0 0 0 0 0 0 0 0 0 0 0 0 0 0 127 0" result="hardAlpha"/>
      <feOffset dy="18"/>
      <feGaussianBlur stdDeviation="22"/>
      <feColorMatrix type="matrix" values="0 0 0 0 0.048 0 0 0 0 0.105 0 0 0 0 0.084 0 0 0 0.22 0"/>
      <feBlend mode="normal" in2="BackgroundImageFix" result="effect1_dropShadow_0_1"/>
      <feBlend mode="normal" in="SourceGraphic" in2="effect1_dropShadow_0_1" result="shape"/>
    </filter>
  </defs>
  <rect width="960" height="760" rx="44" fill="url(#bg)"/>
  <circle cx="780" cy="150" r="96" fill="#CBECD6"/>
  <circle cx="192" cy="648" r="84" fill="#D8F0DF"/>
  <path d="M162 220C162 179.131 195.131 146 236 146H684C724.869 146 758 179.131 758 220V542C758 582.869 724.869 616 684 616H236C195.131 616 162 582.869 162 542V220Z" fill="url(#panel)"/>
  <g filter="url(#shadow)">
    <path d="M162 220C162 179.131 195.131 146 236 146H684C724.869 146 758 179.131 758 220V542C758 582.869 724.869 616 684 616H236C195.131 616 162 582.869 162 542V220Z" fill="url(#glass)"/>
  </g>
  <rect x="208" y="196" width="198" height="162" rx="24" fill="#F7FBF8"/>
  <rect x="228" y="228" width="110" height="12" rx="6" fill="#D0E6D8"/>
  <rect x="228" y="254" width="86" height="12" rx="6" fill="#D0E6D8"/>
  <rect x="228" y="292" width="148" height="18" rx="9" fill="#16382B"/>
  <rect x="228" y="326" width="132" height="12" rx="6" fill="#AECDBB"/>
  <rect x="442" y="196" width="274" height="258" rx="30" fill="#102821"/>
  <rect x="474" y="226" width="118" height="12" rx="6" fill="#A0D0B2"/>
  <rect x="602" y="226" width="72" height="12" rx="6" fill="#4EA476"/>
  <path d="M486 324C520 276 564 252 618 252C657 252 692 267 724 294" stroke="url(#accent)" stroke-width="12" stroke-linecap="round"/>
  <path d="M486 378C522 420 569 441 626 441C661 441 693 433 722 416" stroke="#E3F8EA" stroke-opacity="0.7" stroke-width="10" stroke-linecap="round"/>
  <circle cx="532" cy="318" r="12" fill="#A7E2BE"/>
  <circle cx="612" cy="252" r="14" fill="#60BE86"/>
  <circle cx="686" cy="284" r="10" fill="#D9F5E4"/>
  <circle cx="558" cy="404" r="11" fill="#D9F5E4"/>
  <circle cx="640" cy="439" r="13" fill="#7FD6A2"/>
  <rect x="208" y="394" width="198" height="162" rx="24" fill="#EDF7F0"/>
  <rect x="232" y="424" width="96" height="12" rx="6" fill="#ADCDBC"/>
  <rect x="232" y="448" width="142" height="12" rx="6" fill="#ADCDBC"/>
  <path d="M246 498H360" stroke="#16382B" stroke-width="14" stroke-linecap="round"/>
  <path d="M246 530H330" stroke="#4E9E72" stroke-width="14" stroke-linecap="round"/>
  <rect x="442" y="486" width="274" height="70" rx="22" fill="#F6FBF7"/>
  <rect x="470" y="512" width="164" height="12" rx="6" fill="#B5D6C3"/>
  <rect x="646" y="512" width="44" height="12" rx="6" fill="#5CB07D"/>
  <text x="208" y="112" fill="#143126" font-family="Georgia, 'Times New Roman', serif" font-size="34" font-weight="700">Research-first supplier discovery</text>
  <text x="208" y="666" fill="#3E6251" font-family="Arial, Helvetica, sans-serif" font-size="24">Testing visibility • documentation • cleaner comparisons</text>
</svg>
