<svg width="920" height="360" viewBox="0 0 920 360" fill="none" xmlns="http://www.w3.org/2000/svg" role="img" aria-labelledby="title desc">
  <title id="title">Research panel illustration</title>
  <desc id="desc">An original branded panel showing pricing, purity, and shipping motifs for peptide supplier comparison pages.</desc>
  <rect width="920" height="360" rx="36" fill="#F8F2E7"/>
  <rect x="30" y="30" width="260" height="300" rx="28" fill="#FFF8ED" stroke="#D8CCB9"/>
  <rect x="330" y="30" width="260" height="300" rx="28" fill="#FFF8ED" stroke="#D8CCB9"/>
  <rect x="630" y="30" width="260" height="300" rx="28" fill="#FFF8ED" stroke="#D8CCB9"/>
  <rect x="60" y="62" width="124" height="34" rx="17" fill="#27462D"/>
  <text x="83" y="85" fill="#F9F3E7" font-family="Georgia, 'Times New Roman', serif" font-size="20">PRICE FIT</text>
  <text x="60" y="136" fill="#27462D" font-family="Georgia, 'Times New Roman', serif" font-size="52" font-weight="700">$ • $$ • $$$</text>
  <text x="60" y="182" fill="#5A6858" font-family="Georgia, 'Times New Roman', serif" font-size="22">Entry cost, value posture,</text>
  <text x="60" y="210" fill="#5A6858" font-family="Georgia, 'Times New Roman', serif" font-size="22">and code visibility.</text>
  <rect x="360" y="62" width="142" height="34" rx="17" fill="#B56D42"/>
  <text x="384" y="85" fill="#F9F3E7" font-family="Georgia, 'Times New Roman', serif" font-size="20">PURITY / COA</text>
  <circle cx="444" cy="165" r="56" fill="#F1D79E"/>
  <path d="M414 165L435 186L475 146" stroke="#27462D" stroke-width="12" stroke-linecap="round" stroke-linejoin="round"/>
  <text x="360" y="258" fill="#5A6858" font-family="Georgia, 'Times New Roman', serif" font-size="22">Testing tabs, COA access,</text>
  <text x="360" y="286" fill="#5A6858" font-family="Georgia, 'Times New Roman', serif" font-size="22">and documentation clarity.</text>
  <rect x="660" y="62" width="148" height="34" rx="17" fill="#5C6D3A"/>
  <text x="688" y="85" fill="#F9F3E7" font-family="Georgia, 'Times New Roman', serif" font-size="20">SHIPPING</text>
  <path d="M690 184H784C805 184 822 167 822 146V146" stroke="#27462D" stroke-width="10" stroke-linecap="round"/>
  <path d="M758 126L826 126L826 198L688 198" stroke="#27462D" stroke-width="10" stroke-linejoin="round"/>
  <circle cx="722" cy="226" r="20" fill="#CE9A2A"/>
  <circle cx="792" cy="226" r="20" fill="#CE9A2A"/>
  <text x="660" y="278" fill="#5A6858" font-family="Georgia, 'Times New Roman', serif" font-size="22">Dispatch timing, domestic</text>
  <text x="660" y="306" fill="#5A6858" font-family="Georgia, 'Times New Roman', serif" font-size="22">fit, and delivery clarity.</text>
</svg>
