<svg xmlns="http://www.w3.org/2000/svg" viewBox="0 0 640 640" role="img" aria-labelledby="title desc">
  <title id="title">Ascension Peptides supplier cover</title>
  <desc id="desc">Local branded supplier image for Ascension Peptides.</desc>
  <rect width="640" height="640" rx="36" fill="#402340"/>
  <path d="M0 118c90-42 180-56 272-22s190 40 368-16v170c-86 56-186 62-276 28S170 220 0 286z" fill="#ffcfde" opacity="0.12"/>
  <rect x="54" y="62" width="532" height="516" rx="34" fill="#ffffff" opacity="0.08" stroke="#ffffff" stroke-opacity="0.24"/>
  <rect x="116" y="152" width="172" height="254" rx="24" fill="#fff6fb" opacity="0.15" stroke="#fff6fb" stroke-opacity="0.42"/>
  <rect x="162" y="120" width="80" height="46" rx="16" fill="#ffcfde"/>
  <rect x="332" y="178" width="196" height="18" rx="9" fill="#ffcfde"/>
  <rect x="332" y="224" width="146" height="13" rx="6.5" fill="#ffffff" opacity="0.7"/>
  <rect x="332" y="258" width="178" height="13" rx="6.5" fill="#ffffff" opacity="0.48"/>
  <rect x="332" y="308" width="166" height="48" rx="18" fill="#ffcfde"/>
  <text x="415" y="339" fill="#402340" font-size="17" font-family="Arial, sans-serif" text-anchor="middle">PREMIUM FIT</text>
  <text x="104" y="486" fill="#ffffff" font-size="48" font-family="Georgia, 'Times New Roman', serif">Ascension</text>
  <text x="104" y="530" fill="#ffcfde" font-size="29" font-family="Arial, sans-serif" letter-spacing="2.8">PEPTIDES</text>
  <text x="104" y="88" fill="#ffffff" font-size="18" font-family="Arial, sans-serif" letter-spacing="2">RESEARCH SUPPLIER</text>
</svg>
