<svg width="960" height="760" viewBox="0 0 960 760" fill="none" xmlns="http://www.w3.org/2000/svg">
  <defs>
    <linearGradient id="sup-bg" x1="126" y1="94" x2="856" y2="664" gradientUnits="userSpaceOnUse">
      <stop stop-color="#F7FAF8"/>
      <stop offset="1" stop-color="#E4EEE8"/>
    </linearGradient>
    <linearGradient id="sup-dark" x1="250" y1="170" x2="704" y2="566" gradientUnits="userSpaceOnUse">
      <stop stop-color="#143126"/>
      <stop offset="1" stop-color="#0A1A15"/>
    </linearGradient>
    <linearGradient id="sup-accent" x1="190" y1="230" x2="770" y2="514" gradientUnits="userSpaceOnUse">
      <stop stop-color="#6EC995"/>
      <stop offset="1" stop-color="#2B8E5C"/>
    </linearGradient>
  </defs>
  <rect width="960" height="760" rx="44" fill="url(#sup-bg)"/>
  <circle cx="180" cy="176" r="88" fill="#DDEEE4"/>
  <circle cx="788" cy="612" r="108" fill="#D4EADC"/>
  <rect x="180" y="156" width="600" height="448" rx="38" fill="url(#sup-dark)"/>
  <rect x="222" y="206" width="230" height="146" rx="28" fill="#F8FBF9"/>
  <rect x="246" y="238" width="116" height="12" rx="6" fill="#BCD8C8"/>
  <rect x="246" y="264" width="90" height="12" rx="6" fill="#BCD8C8"/>
  <rect x="246" y="300" width="132" height="20" rx="10" fill="#15372A"/>
  <rect x="246" y="332" width="162" height="12" rx="6" fill="#A6C7B5"/>
  <rect x="494" y="206" width="242" height="146" rx="28" fill="#10251D"/>
  <rect x="524" y="236" width="102" height="12" rx="6" fill="#95C6A8"/>
  <rect x="638" y="236" width="56" height="12" rx="6" fill="#4AA26F"/>
  <rect x="524" y="278" width="178" height="18" rx="9" fill="#E5F6EB" fill-opacity="0.88"/>
  <rect x="524" y="312" width="146" height="12" rx="6" fill="#B5D7C4"/>
  <rect x="222" y="390" width="514" height="170" rx="30" fill="#F4FAF6"/>
  <rect x="252" y="426" width="188" height="102" rx="22" fill="#E7F3EC"/>
  <rect x="470" y="426" width="108" height="16" rx="8" fill="#436E59"/>
  <rect x="470" y="456" width="220" height="14" rx="7" fill="#B3D4C1"/>
  <rect x="470" y="486" width="188" height="14" rx="7" fill="#B3D4C1"/>
  <path d="M286 458H404" stroke="url(#sup-accent)" stroke-width="18" stroke-linecap="round"/>
  <path d="M286 492H374" stroke="#1A432F" stroke-width="18" stroke-linecap="round"/>
  <path d="M286 526H348" stroke="#8BC6A5" stroke-width="18" stroke-linecap="round"/>
  <circle cx="720" cy="208" r="9" fill="#78C899"/>
  <circle cx="748" cy="208" r="9" fill="#DDF6E7"/>
  <circle cx="776" cy="208" r="9" fill="#A8DCBC"/>
  <text x="190" y="114" fill="#173328" font-family="Georgia, 'Times New Roman', serif" font-size="34" font-weight="700">Editorial supplier hub</text>
  <text x="190" y="668" fill="#446654" font-family="Arial, Helvetica, sans-serif" font-size="24">Best overall • value • shipping • trust signals</text>
</svg>
