<svg xmlns="http://www.w3.org/2000/svg" viewBox="0 0 640 640" role="img" aria-labelledby="title desc">
  <title id="title">Peptide Sciences supplier cover</title>
  <desc id="desc">Local branded supplier image for Peptide Sciences.</desc>
  <rect width="640" height="640" rx="36" fill="#22365a"/>
  <path d="M-30 468c116-100 220-152 310-152 102 0 192 42 390 150v174H-30z" fill="#d4e6ff" opacity="0.14"/>
  <rect x="52" y="60" width="536" height="520" rx="34" fill="#ffffff" opacity="0.08" stroke="#ffffff" stroke-opacity="0.25"/>
  <rect x="118" y="148" width="172" height="258" rx="24" fill="#f5f9ff" opacity="0.16" stroke="#f5f9ff" stroke-opacity="0.42"/>
  <rect x="164" y="118" width="80" height="46" rx="16" fill="#d4e6ff"/>
  <rect x="332" y="180" width="198" height="18" rx="9" fill="#d4e6ff"/>
  <rect x="332" y="226" width="162" height="13" rx="6.5" fill="#ffffff" opacity="0.72"/>
  <rect x="332" y="260" width="178" height="13" rx="6.5" fill="#ffffff" opacity="0.5"/>
  <rect x="332" y="310" width="170" height="48" rx="18" fill="#d4e6ff"/>
  <text x="417" y="341" fill="#22365a" font-size="16" font-family="Arial, sans-serif" text-anchor="middle">TESTING TABS</text>
  <text x="102" y="486" fill="#ffffff" font-size="44" font-family="Georgia, 'Times New Roman', serif">Peptide</text>
  <text x="102" y="530" fill="#d4e6ff" font-size="30" font-family="Arial, sans-serif" letter-spacing="2.8">SCIENCES</text>
  <text x="102" y="88" fill="#ffffff" font-size="18" font-family="Arial, sans-serif" letter-spacing="2">RESEARCH SUPPLIER</text>
</svg>
