<svg xmlns="http://www.w3.org/2000/svg" viewBox="0 0 840 260">
  <rect width="840" height="260" rx="34" fill="#fff8ef"/>
  <g transform="translate(58 48)">
    <rect width="200" height="164" rx="24" fill="#f2eadc"/>
    <circle cx="100" cy="54" r="28" fill="#27462d"/>
    <path d="M88 55l8 8 16-18" fill="none" stroke="#fff8ef" stroke-width="6" stroke-linecap="round" stroke-linejoin="round"/>
    <rect x="42" y="106" width="116" height="16" rx="8" fill="#27462d" opacity=".16"/>
    <rect x="58" y="132" width="84" height="12" rx="6" fill="#b56d42" opacity=".26"/>
  </g>
  <g transform="translate(320 48)">
    <rect width="200" height="164" rx="24" fill="#f2eadc"/>
    <rect x="62" y="30" width="76" height="94" rx="16" fill="#ce9a2a"/>
    <rect x="78" y="16" width="44" height="20" rx="8" fill="#27462d"/>
    <rect x="48" y="136" width="104" height="12" rx="6" fill="#27462d" opacity=".2"/>
  </g>
  <g transform="translate(582 48)">
    <rect width="200" height="164" rx="24" fill="#f2eadc"/>
    <path d="M100 30l42 18v28c0 38-17 61-42 76-25-15-42-38-42-76V48z" fill="#27462d"/>
    <path d="M83 80l12 12 23-28" fill="none" stroke="#f9f3e7" stroke-width="6" stroke-linecap="round" stroke-linejoin="round"/>
    <rect x="50" y="136" width="100" height="12" rx="6" fill="#b56d42" opacity=".26"/>
  </g>
</svg>
